<?xml version="1.0" encoding="UTF-8"?>
<svg id="blue_bckrnd_white_logo" data-name="blue bckrnd + white logo" xmlns="http://www.w3.org/2000/svg" viewBox="0 0 3401.6 3401.6">
  <defs>
    <style>
      .cls-1 {
        fill: #fff;
      }

    </style>
  </defs>
  <path class="cls-1" d="m2821.5,2322.7l-235.2-1657.3H815.3l-235.2,1657.3c-.2,1.2-.3,2.5-.3,3.7,1,185.8,144.1,409.7,329.6,409.7h1582.8c185.5,0,328.6-223.9,329.6-409.7,0-1.3,0-2.5-.3-3.7Zm-1696.1-804.9c35.3-140.2,112.3-253.5,233.4-332,199.7-129.6,407.1-134.5,613.7-18.1,57.7,32.5,106.1,81.8,164,127.5,37.2-28.3,131.6-101.9,131.6-101.9,0,0,7.3,286.8,11.5,430.6-138.8-39.5-269.3-76.6-411.1-116.9,50.4-40.3,91.3-73.1,134.8-107.9-59.6-74.8-135.9-122.7-228-142.7-225.8-48.9-429.5,73.4-494.6,294.4-19.6,66.5-75.6,91.5-127.1,57.1-33.8-22.6-36.6-56.3-28.1-90.1Zm1151.2,353.9c-51.3,218.2-248.5,393.1-481.4,421.8-192.9,23.8-357.4-37.8-492.9-176.9-9-9.3-17.4-19.2-29-32.2-44.9,34.1-137.7,104.4-137.7,104.4,0,0-8.6-283.7-12.9-427.4,138.8,39.5,269.3,76.6,411.2,116.9-50.6,40.4-91.5,73.1-135.4,108.2,78.4,93.4,177.1,147.8,297.9,152,212.9,7.4,363.8-104.3,426-308,15.6-51.2,58.3-78.5,102.4-65.5,44.5,13,64.3,53.8,51.8,106.7Z"/>
</svg>
